<svg width="104" height="104" viewBox="0 0 104 104" fill="none" xmlns="http://www.w3.org/2000/svg">
<path d="M100.75 48.7499C100.745 43.5799 98.6884 38.6231 95.0326 34.9673C91.3768 31.3115 86.4201 29.2553 81.25 29.2499H65.0812C63.8991 29.1809 43.2981 27.7306 23.6803 11.2774C22.733 10.4818 21.5782 9.97305 20.3518 9.81094C19.1253 9.64882 17.8781 9.84008 16.7565 10.3622C15.635 10.8844 14.6858 11.7158 14.0203 12.7587C13.3549 13.8016 13.0009 15.0128 13 16.2499V81.2499C13.0002 82.4874 13.3536 83.6991 14.0187 84.7427C14.6838 85.7862 15.633 86.6182 16.7547 87.1409C17.8764 87.6635 19.1239 87.8551 20.3508 87.6931C21.5776 87.5312 22.7327 87.0224 23.6803 86.2265C39.0244 73.3565 54.9616 69.6678 61.75 68.6359V81.5221C61.7486 82.5932 62.012 83.648 62.5166 84.5928C63.0212 85.5376 63.7515 86.343 64.6425 86.9374L69.1112 89.9153C69.975 90.4918 70.9643 90.8529 71.9963 90.9685C73.0283 91.0841 74.073 90.9507 75.0429 90.5795C76.0128 90.2084 76.8796 89.6102 77.5708 88.8352C78.262 88.0602 78.7574 87.1308 79.0156 86.1249L83.7972 68.1037C88.4883 67.4795 92.7931 65.1731 95.9113 61.6133C99.0296 58.0534 100.749 53.4824 100.75 48.7499ZM19.5 81.2215V16.2499C36.8916 30.8384 54.6934 34.5312 61.75 35.4412V62.0424C54.7016 62.9687 36.9037 66.6534 19.5 81.2215ZM72.7187 84.4715V84.5162L68.25 81.5384V68.2499H77.025L72.7187 84.4715ZM81.25 61.7499H68.25V35.7499H81.25C84.6978 35.7499 88.0044 37.1196 90.4424 39.5576C92.8804 41.9955 94.25 45.3021 94.25 48.7499C94.25 52.1978 92.8804 55.5044 90.4424 57.9423C88.0044 60.3803 84.6978 61.7499 81.25 61.7499Z" fill="#D1D5DB"/>
</svg>
