<svg width="104" height="104" viewBox="0 0 104 104" fill="none" xmlns="http://www.w3.org/2000/svg">
<path d="M94.2784 75.8712C96.5241 71.2135 97.626 66.0872 97.4925 60.918C97.3591 55.7489 95.9942 50.6863 93.5113 46.1506C91.0283 41.6149 87.4989 37.7372 83.2163 34.8395C78.9338 31.9417 74.0216 30.1077 68.8878 29.4896C67.1796 25.518 64.6961 21.9271 61.5828 18.9272C58.4695 15.9274 54.789 13.5788 50.7567 12.0191C46.7244 10.4594 42.4215 9.71992 38.0999 9.84394C33.7782 9.96796 29.5248 10.953 25.5886 12.7414C21.6524 14.5297 18.1126 17.0855 15.1764 20.259C12.2403 23.4324 9.96684 27.1598 8.48921 31.2229C7.01158 35.286 6.35947 39.603 6.57108 43.9212C6.78268 48.2395 7.85375 52.4721 9.72154 56.3712L6.76811 66.4096C6.43789 67.5303 6.41581 68.7192 6.70419 69.8514C6.99257 70.9835 7.58075 72.017 8.40686 72.8431C9.23296 73.6692 10.2664 74.2574 11.3986 74.5458C12.5307 74.8341 13.7196 74.8121 14.8403 74.4818L24.8787 71.5284C28.1021 73.0771 31.5578 74.0858 35.1081 74.5143C36.833 78.5557 39.3594 82.2054 42.5348 85.2427C45.7101 88.28 49.4684 90.6418 53.5824 92.1854C57.6965 93.729 62.0808 94.4224 66.4704 94.2235C70.86 94.0246 75.1636 92.9377 79.1212 91.0284L89.1597 93.9818C90.2799 94.3117 91.4683 94.3336 92.5999 94.0454C93.7316 93.7572 94.7647 93.1694 95.5906 92.3439C96.4166 91.5183 97.0049 90.4855 97.2937 89.354C97.5825 88.2225 97.5611 87.0341 97.2319 85.9137L94.2784 75.8712ZM25.1875 64.7968C24.8769 64.7976 24.5679 64.8413 24.2694 64.9268L13 68.25L16.319 56.9725C16.5551 56.1577 16.4633 55.2829 16.0631 54.535C13.1231 49.0367 12.2568 42.665 13.6222 36.5814C14.9876 30.4978 18.4937 25.1074 23.5013 21.3929C28.509 17.6783 34.6847 15.887 40.9028 16.3454C47.1209 16.8039 52.9671 19.4815 57.3759 23.8903C61.7847 28.299 64.4623 34.1453 64.9208 40.3634C65.3792 46.5815 63.5879 52.7572 59.8733 57.7649C56.1588 62.7725 50.7684 66.2786 44.6848 67.644C38.6012 69.0093 32.2295 68.1431 26.7312 65.2031C26.2584 64.9414 25.7278 64.8018 25.1875 64.7968ZM87.6647 76.4684L91 87.75L79.7225 84.4309C78.9077 84.1948 78.033 84.2867 77.285 84.6868C71.3002 87.8825 64.304 88.6143 57.7875 86.7262C51.271 84.8381 45.7496 80.4795 42.4003 74.5793C46.8503 74.1149 51.1562 72.7358 55.0481 70.5287C58.9399 68.3215 62.3337 65.3339 65.0164 61.7533C67.6991 58.1727 69.6129 54.0762 70.6377 49.7211C71.6626 45.3659 71.7763 40.8459 70.9719 36.4446C74.8491 37.3586 78.4644 39.1512 81.5389 41.6841C84.6134 44.217 87.0648 47.4224 88.7038 51.0531C90.3428 54.6837 91.1257 58.6424 90.9921 62.6236C90.8584 66.6049 89.8117 70.5021 87.9328 74.0146C87.5283 74.7671 87.4364 75.6486 87.6769 76.4684H87.6647Z" fill="#D1D5DB"/>
</svg>
