<svg width="72" height="72" viewBox="0 0 72 72" fill="none" xmlns="http://www.w3.org/2000/svg">
<rect width="72" height="72" rx="36" fill="#6962AC"/>
<path d="M46 30H42V27C42 25.4087 41.3679 23.8826 40.2426 22.7574C39.1174 21.6321 37.5913 21 36 21C34.4087 21 32.8826 21.6321 31.7574 22.7574C30.6321 23.8826 30 25.4087 30 27V30H26C25.4696 30 24.9609 30.2107 24.5858 30.5858C24.2107 30.9609 24 31.4696 24 32V46C24 46.5304 24.2107 47.0391 24.5858 47.4142C24.9609 47.7893 25.4696 48 26 48H46C46.5304 48 47.0391 47.7893 47.4142 47.4142C47.7893 47.0391 48 46.5304 48 46V32C48 31.4696 47.7893 30.9609 47.4142 30.5858C47.0391 30.2107 46.5304 30 46 30ZM36 40.5C35.7033 40.5 35.4133 40.412 35.1666 40.2472C34.92 40.0824 34.7277 39.8481 34.6142 39.574C34.5006 39.2999 34.4709 38.9983 34.5288 38.7074C34.5867 38.4164 34.7296 38.1491 34.9393 37.9393C35.1491 37.7296 35.4164 37.5867 35.7074 37.5288C35.9983 37.4709 36.2999 37.5007 36.574 37.6142C36.8481 37.7277 37.0824 37.92 37.2472 38.1666C37.412 38.4133 37.5 38.7033 37.5 39C37.5 39.3978 37.342 39.7794 37.0607 40.0607C36.7794 40.342 36.3978 40.5 36 40.5ZM40 30H32V27C32 25.9391 32.4214 24.9217 33.1716 24.1716C33.9217 23.4214 34.9391 23 36 23C37.0609 23 38.0783 23.4214 38.8284 24.1716C39.5786 24.9217 40 25.9391 40 27V30Z" fill="white"/>
</svg>
