<svg width="104" height="104" viewBox="0 0 104 104" fill="none" xmlns="http://www.w3.org/2000/svg">
<path d="M74.75 29.25H16.25C14.5261 29.25 12.8728 29.9348 11.6538 31.1538C10.4348 32.3728 9.75 34.0261 9.75 35.75V81.25C9.75 82.9739 10.4348 84.6272 11.6538 85.8462C12.8728 87.0652 14.5261 87.75 16.25 87.75H74.75C76.4739 87.75 78.1272 87.0652 79.3462 85.8462C80.5652 84.6272 81.25 82.9739 81.25 81.25V35.75C81.25 34.0261 80.5652 32.3728 79.3462 31.1538C78.1272 29.9348 76.4739 29.25 74.75 29.25ZM74.75 81.25H16.25V35.75H74.75V81.25ZM94.25 22.75V71.5C94.25 72.362 93.9076 73.1886 93.2981 73.7981C92.6886 74.4076 91.862 74.75 91 74.75C90.138 74.75 89.3114 74.4076 88.7019 73.7981C88.0924 73.1886 87.75 72.362 87.75 71.5V22.75H26C25.138 22.75 24.3114 22.4076 23.7019 21.7981C23.0924 21.1886 22.75 20.362 22.75 19.5C22.75 18.638 23.0924 17.8114 23.7019 17.2019C24.3114 16.5924 25.138 16.25 26 16.25H87.75C89.4739 16.25 91.1272 16.9348 92.3462 18.1538C93.5652 19.3728 94.25 21.0261 94.25 22.75Z" fill="#D1D5DB"/>
</svg>
