<svg width="18" height="28" viewBox="0 0 18 28" fill="none" xmlns="http://www.w3.org/2000/svg">
<path d="M15 28H3C2.20435 28 1.44129 27.6839 0.87868 27.1213C0.316071 26.5587 0 25.7956 0 25V3C0 2.20435 0.316071 1.44129 0.87868 0.878679C1.44129 0.316071 2.20435 0 3 0H15C15.7956 0 16.5587 0.316071 17.1213 0.878679C17.6839 1.44129 18 2.20435 18 3V25C18 25.7956 17.6839 26.5587 17.1213 27.1213C16.5587 27.6839 15.7956 28 15 28ZM16 3C16 2.73478 15.8946 2.48043 15.7071 2.29289C15.5196 2.10536 15.2652 2 15 2H3C2.73478 2 2.48043 2.10536 2.29289 2.29289C2.10536 2.48043 2 2.73478 2 3V25C2 25.2652 2.10536 25.5196 2.29289 25.7071C2.48043 25.8946 2.73478 26 3 26H15C15.2652 26 15.5196 25.8946 15.7071 25.7071C15.8946 25.5196 16 25.2652 16 25V3ZM10.5 22.5C10.5 22.2033 10.412 21.9133 10.2472 21.6666C10.0824 21.42 9.84811 21.2277 9.57402 21.1142C9.29994 21.0006 8.99834 20.9709 8.70736 21.0288C8.41639 21.0867 8.14912 21.2296 7.93934 21.4393C7.72956 21.6491 7.5867 21.9164 7.52882 22.2074C7.47094 22.4983 7.50065 22.7999 7.61418 23.074C7.72771 23.3481 7.91997 23.5824 8.16665 23.7472C8.41332 23.912 8.70333 24 9 24C9.39782 24 9.77936 23.842 10.0607 23.5607C10.342 23.2794 10.5 22.8978 10.5 22.5Z" fill="#6962AC"/>
</svg>
