<svg width="38" height="40" viewBox="0 0 38 40" fill="none" xmlns="http://www.w3.org/2000/svg">
<path d="M28.2623 30.1445C28.2623 30.1445 16.2678 38.8028 12.8734 39.8712C12.7897 39.8968 12.7127 39.9199 12.6401 39.9362C11.9586 40.0938 11.1072 39.9642 10.4186 39.4958C10.0427 39.4865 9.71442 39.4333 9.42668 39.3382C8.41454 39.0116 7.90728 38.2187 7.52667 37.2965C6.89717 35.7715 1.79761 22.6983 0.710834 19.1828C0.167445 17.4262 -0.0476753 16.3274 0.0087237 15.5791C0.0654604 14.8304 0.396081 14.4343 0.93947 14.0821C2.02861 13.3777 6.84043 10.5061 13.0268 7.34036C19.2131 4.17462 21.4616 5.15486 21.4616 5.15486C21.4616 5.15486 21.4616 5.15728 21.4616 5.15936H21.464L23.0243 10.8929L28.2623 30.1445Z" fill="#FD6387"/>
<path opacity="0.3" d="M16.8863 7.80045C16.7843 7.86301 16.6803 7.928 16.5739 7.99056C16.2095 8.21315 15.8221 8.44473 15.4169 8.68599C15.2855 8.76479 15.1518 8.8436 15.016 8.92483C14.5743 9.18441 14.117 9.45538 13.6462 9.73121C13.4831 9.82626 13.318 9.92373 13.1525 10.0209C12.7901 10.2317 12.4257 10.445 12.0566 10.6582C11.1393 11.1912 10.2109 11.729 9.32106 12.2458C9.2802 12.2713 9.23731 12.2945 9.19409 12.3176V12.3201C9.19172 12.3201 9.19172 12.3201 9.19172 12.3201C8.65508 12.6305 8.13432 12.9343 7.63382 13.2239C7.52744 13.2889 7.42106 13.3491 7.3167 13.4092C7.25794 13.4441 7.19884 13.4787 7.14008 13.5136C6.95434 13.6225 6.77096 13.7293 6.59433 13.8333C4.82806 14.8671 3.53493 15.6455 3.30629 15.8612C2.44815 16.6745 2.65652 18.0398 3.28603 20.2367C3.9179 22.436 9.81649 38.3227 10.2467 39.0272C10.3531 39.201 10.4051 39.3586 10.4166 39.4952C10.0407 39.4883 9.71248 39.4326 9.42474 39.3376C8.05935 36.5334 3.72743 25.1009 2.64268 21.8425C1.39515 18.1044 0.795021 16.1553 1.13916 15.687C1.26377 15.5155 3.10029 14.4102 5.48897 13.0311C5.57948 12.9802 5.66999 12.9267 5.76286 12.8734C5.95975 12.7597 6.159 12.6464 6.36062 12.5306C6.45586 12.4749 6.55312 12.4193 6.65038 12.3636C7.09212 12.1134 7.545 11.8559 8.00227 11.5966C8.07488 11.5548 8.14952 11.5133 8.22415 11.4715C8.72465 11.1864 9.22954 10.9036 9.73241 10.6233C10.0583 10.4401 10.3845 10.2594 10.7037 10.081C11.3693 9.71013 12.0215 9.35342 12.6351 9.01953C12.7574 8.95248 12.8796 8.88508 12.9975 8.8201C13.2555 8.68115 13.5047 8.54669 13.7448 8.41915C13.8603 8.35659 13.9715 8.29644 14.0822 8.23838C14.4966 8.0182 14.8792 7.81428 15.2257 7.63593C15.3321 7.5827 15.4317 7.52912 15.529 7.48073C15.9637 7.25814 16.3284 7.0822 16.5979 6.96157C16.6749 6.92459 16.7451 6.89452 16.8063 6.86894C16.8333 6.85719 16.863 6.84579 16.89 6.83404C19.0798 5.9326 19.5914 5.90253 19.5914 5.90253C19.7167 6.0114 18.5938 6.75972 16.8863 7.80045Z" fill="#C60030"/>
<path d="M15.5363 7.27704C15.5363 7.3441 15.5363 7.41357 15.532 7.48097C15.5252 7.89125 15.4843 8.29426 15.4188 8.68622C15.2875 8.76503 15.1537 8.84384 15.0179 8.92507C14.5762 9.18464 14.1189 9.45562 13.6482 9.73144C13.485 9.82649 13.3199 9.92397 13.1544 10.0211C12.792 10.2319 12.4276 10.4452 12.0585 10.6585C11.1413 11.1914 10.2129 11.7293 9.32299 12.246C9.28213 12.2716 9.23925 12.2947 9.19602 12.3179V12.3203C9.19366 12.3203 9.19365 12.3203 9.19365 12.3203C8.65701 12.6307 8.13625 12.9345 7.63575 13.2242C7.52937 13.2891 7.42299 13.3493 7.31863 13.4094C7.25987 13.4443 7.20078 13.4789 7.14201 13.5138C6.95627 13.6227 6.77289 13.7295 6.59626 13.8335C6.20214 13.6109 5.83335 13.3424 5.49124 13.0316C4.02149 11.7013 3.0752 9.61807 3.0752 7.27738C3.0752 3.25859 5.8651 0.000228882 9.30679 0.000228882H10.6766V0.178583C11.9923 0.523879 13.1494 1.35584 14.0051 2.50302C14.9588 3.77983 15.5363 5.44825 15.5363 7.27704Z" fill="#DC9530"/>
<path opacity="0.3" d="M12.0593 10.0795V10.6568C11.142 11.1897 10.2136 11.7276 9.32375 12.2443C9.28289 12.2699 9.24 12.293 9.19677 12.3162V12.3186C9.1944 12.3186 9.1944 12.3186 9.1944 12.3186C8.65776 12.629 8.13701 12.9328 7.63651 13.2225C7.53013 13.2874 7.42375 13.3476 7.31939 13.4077C7.26063 13.4426 7.20153 13.4772 7.14276 13.5121H6.66489C6.34777 13.3289 6.04653 13.1136 5.76589 12.8723C4.93949 12.1537 4.27587 11.1946 3.85474 10.0795H12.0593Z" fill="#DC9530"/>
<path opacity="0.3" d="M10.7485 7.56735H3.35791C3.38391 8.29839 3.50549 9.00039 3.70981 9.65607H10.7485V7.56735Z" fill="#DC9530"/>
<path opacity="0.3" d="M10.4138 6.00442H3.45003C3.38957 6.38566 3.3558 6.77797 3.35107 7.17857H10.4138V6.00442Z" fill="#DC9530"/>
<path opacity="0.3" d="M10.4157 4.94158H3.69578C3.63735 5.13376 3.58501 5.32905 3.54077 5.52848H10.416V4.94158H10.4157Z" fill="#DC9530"/>
<path d="M16.9078 7.27649C16.9078 7.45242 16.9034 7.62869 16.8895 7.80013C16.7875 7.86269 16.6835 7.92768 16.5771 7.99024C16.2127 8.21283 15.8254 8.44441 15.4201 8.68567C15.2887 8.76448 15.155 8.84329 15.0192 8.92451C14.5775 9.18409 14.1202 9.45507 13.6494 9.73089C13.4863 9.82594 13.3212 9.92342 13.1557 10.0205C12.7933 10.2314 12.4289 10.4446 12.0598 10.6579C11.1426 11.1909 10.2142 11.7287 9.32429 12.2454C9.28342 12.271 9.24053 12.2942 9.1973 12.3173V12.3198C9.19494 12.3198 9.19493 12.3198 9.19493 12.3198C8.6583 12.6301 8.13754 12.934 7.63704 13.2236C7.53066 13.2886 7.42428 13.3487 7.31993 13.4089C6.97579 13.1517 6.6563 12.8572 6.36452 12.5306C5.75324 11.8424 5.2595 11.0105 4.92887 10.081C4.87923 9.94208 4.8316 9.80313 4.7931 9.65934C4.59621 9.00124 4.47835 8.30132 4.45573 7.57132C4.451 7.47385 4.44897 7.37672 4.44897 7.27717C4.44897 7.24468 4.44897 7.2122 4.45133 7.17971C4.4537 6.77876 4.48545 6.38715 4.54658 6.00694C4.5692 5.84483 4.59656 5.68722 4.6327 5.5296C4.6712 5.33017 4.72117 5.13557 4.77993 4.9434C5.60869 2.06972 7.9366 1.52588e-05 10.6789 1.52588e-05C13.9939 1.52588e-05 16.7021 3.02196 16.8946 6.8344C16.9034 6.97957 16.9078 7.12786 16.9078 7.27649Z" fill="#F8B02B"/>
<path opacity="0.3" d="M16.608 7.27454C16.608 7.51545 16.5965 7.75429 16.5762 7.98829C16.2118 8.21088 15.8245 8.44246 15.4192 8.68372C15.2878 8.76253 15.1541 8.84134 15.0183 8.92256C14.5766 9.18214 14.1193 9.45312 13.6485 9.72894C13.4854 9.82399 13.3203 9.92147 13.1548 10.0186C12.7924 10.2294 12.428 10.4427 12.0589 10.656C11.1416 11.1889 10.2133 11.7268 9.32337 12.2435C9.2825 12.2691 9.23962 12.2922 9.19639 12.3154V12.3178C9.19403 12.3178 9.19402 12.3178 9.19402 12.3178C8.65739 12.6282 8.13662 12.932 7.63613 13.2217C7.28287 12.9759 6.95225 12.6863 6.65337 12.362C6.18698 11.8591 5.78847 11.2681 5.48047 10.6145C6.19137 11.0735 6.98872 11.3652 7.83775 11.4464C7.96473 11.4603 8.0961 11.4672 8.22713 11.4696C8.26327 11.472 8.29974 11.472 8.33791 11.472C9.00152 11.472 9.64218 11.3445 10.2379 11.106C10.4665 11.0178 10.6884 10.9114 10.9036 10.7908C10.9329 10.7745 10.9623 10.7558 10.992 10.7375C11.3135 10.5523 11.6172 10.3297 11.9022 10.0794C12.1399 9.871 12.3618 9.6415 12.5702 9.39333C12.5702 9.39333 12.5678 9.3909 12.5702 9.3909C12.7242 9.21013 12.8691 9.02003 13.0004 8.81852C13.3561 8.29487 13.6458 7.71073 13.8586 7.08028C13.9467 6.8207 14.0217 6.55422 14.0805 6.28082C14.2051 5.72675 14.2706 5.14503 14.2706 4.545C14.2706 4.34798 14.2639 4.15338 14.25 3.96086C14.2139 3.45553 14.1301 2.96679 14.0055 2.50087C13.8876 2.04669 13.7293 1.61326 13.5344 1.2054C15.2915 2.33876 16.5053 4.48244 16.6005 6.96C16.6056 7.06335 16.608 7.16773 16.608 7.27454Z" fill="#DC9530"/>
<path d="M15.2428 7.27596C15.2428 7.39659 15.2384 7.51687 15.2317 7.63508C15.2067 8.08234 15.1344 8.51336 15.021 8.92364C14.5792 9.18321 14.1219 9.4542 13.6512 9.73002C13.4881 9.82507 13.3229 9.92254 13.1574 10.0197C12.7951 10.2305 12.4307 10.4438 12.0615 10.657C11.1443 11.19 10.2159 11.7278 9.326 12.2446C9.28514 12.2701 9.24226 12.2933 9.19903 12.3165C9.18079 12.312 9.16289 12.3047 9.14465 12.2957C9.13351 12.2933 9.12439 12.2888 9.11291 12.2819C9.04942 12.2563 8.98828 12.2287 8.92716 12.1986C8.92479 12.1986 8.9204 12.1962 8.91568 12.1917C8.91331 12.1917 8.91331 12.1917 8.91129 12.1917C8.6553 12.0666 8.41316 11.9159 8.18452 11.7399C8.13454 11.7005 8.08489 11.6611 8.03491 11.6193C8.02579 11.6124 8.01667 11.6055 8.00789 11.5961C7.97378 11.5681 7.94238 11.5405 7.91063 11.5128C7.88564 11.4921 7.86301 11.471 7.84038 11.4479C7.78837 11.4015 7.73839 11.3528 7.68875 11.3017C7.60263 11.2159 7.52124 11.1233 7.43951 11.0307C7.30374 10.8686 7.17677 10.6992 7.0589 10.5184C7.03189 10.479 7.0069 10.4396 6.98191 10.3978C6.94104 10.3328 6.90254 10.2682 6.86404 10.2008C6.84141 10.1614 6.81879 10.122 6.79852 10.0802C6.79413 10.0688 6.78941 10.0594 6.78265 10.0477C6.73064 9.94569 6.68066 9.84373 6.63337 9.73935C6.61987 9.7117 6.60839 9.68612 6.59488 9.65813C6.58576 9.63255 6.57462 9.6049 6.5655 9.57932C6.45 9.3035 6.35713 9.01385 6.28486 8.71487C6.26898 8.64781 6.25547 8.58283 6.24196 8.51543C6.23082 8.4667 6.2217 8.41588 6.21495 8.36473C6.20346 8.3115 6.19468 8.26034 6.18758 8.20469C6.17408 8.12831 6.16497 8.05157 6.15821 7.97519C6.14909 7.91504 6.14469 7.85249 6.13794 7.78993C6.13355 7.71803 6.12883 7.64372 6.12444 7.56976C6.12005 7.47228 6.11768 7.37515 6.11768 7.27561C6.11768 7.24312 6.11768 7.21062 6.12005 7.17813C6.12444 6.77477 6.17002 6.38316 6.24905 6.00538C6.2808 5.84327 6.32166 5.68565 6.36894 5.52804C6.42771 5.32653 6.49795 5.12951 6.57732 4.94183C7.24296 3.34738 8.56985 2.20019 10.1416 1.98451C10.3182 1.95893 10.4972 1.94753 10.6806 1.94753C12.1277 1.94753 13.4181 2.73317 14.254 3.96158C14.8737 4.87028 15.2428 6.02197 15.2428 7.27596Z" fill="#DC9530"/>
<path d="M14.1612 7.27596C14.1612 7.60501 14.1362 7.92472 14.0866 8.23787C14.0052 8.76636 13.8556 9.26927 13.6495 9.73035C13.4864 9.82541 13.3213 9.92288 13.1558 10.02C12.7934 10.2308 12.429 10.4441 12.0599 10.6574C11.1427 11.1903 10.2143 11.7282 9.32439 12.2449C9.28353 12.2705 9.24063 12.2936 9.19741 12.3168V12.3192C9.19504 12.3192 9.19504 12.3192 9.19504 12.3192C9.1768 12.3123 9.1589 12.3054 9.14303 12.2961C9.13189 12.2936 9.12277 12.2891 9.11129 12.2822C9.0478 12.2566 8.98667 12.229 8.92555 12.1989C8.92115 12.1965 8.91406 12.1944 8.90967 12.192C8.65368 12.0669 8.41154 11.9162 8.1829 11.7403C8.13292 11.7009 8.08328 11.6615 8.03329 11.6196C8.02417 11.6127 8.01505 11.6058 8.00627 11.5965C7.97216 11.5685 7.94075 11.5408 7.90901 11.5132C7.88402 11.4924 7.86139 11.4714 7.83876 11.4482C7.78675 11.4019 7.73677 11.3531 7.68712 11.302C7.601 11.2163 7.51962 11.1236 7.43789 11.031C7.30213 10.8689 7.17514 10.6995 7.05728 10.5188C7.03026 10.4794 7.00527 10.44 6.98028 10.3981C6.93942 10.3332 6.90092 10.2685 6.86242 10.2011C6.84216 10.1617 6.81953 10.1223 6.79893 10.0805H6.79656C6.79217 10.0691 6.78744 10.0598 6.78069 10.048C6.72868 9.94604 6.6787 9.84407 6.63142 9.73969C6.61994 9.71204 6.60643 9.68647 6.59731 9.65847C6.5838 9.63289 6.57231 9.60523 6.56353 9.57965C6.44803 9.30383 6.35516 9.01419 6.28289 8.71521C6.26702 8.64816 6.25351 8.58318 6.24 8.51578C6.22885 8.46704 6.21974 8.41623 6.21298 8.36507C6.2015 8.31185 6.19272 8.26069 6.18563 8.20504C6.17212 8.12865 6.163 8.05192 6.15625 7.97553C6.14713 7.91539 6.14274 7.85284 6.13598 7.79027C6.13159 7.71838 6.12686 7.64406 6.12247 7.57009C6.11808 7.47262 6.11572 7.3755 6.11572 7.27596C6.11572 7.24347 6.11572 7.21097 6.11808 7.17848C6.12247 6.77512 6.16807 6.3835 6.2471 6.00572C6.27884 5.84361 6.3197 5.686 6.36698 5.52839C6.42574 5.32688 6.49599 5.12986 6.57536 4.94218C7.241 3.34773 8.5679 2.20054 10.1396 1.98486C12.1234 2.25585 13.7151 4.01516 14.0818 6.28154C14.1342 6.60368 14.1612 6.93515 14.1612 7.27596Z" fill="#F59111"/>
<path d="M10.2362 11.4113L8.50129 8.39407V7.80005H8.93502C9.19903 7.80005 9.42846 7.76862 9.62333 7.70576C9.81819 7.6429 9.97534 7.54547 10.0948 7.41347C10.2205 7.27518 10.3022 7.10546 10.3399 6.90431H8.50129V6.24429H10.3305C10.2928 6.04942 10.2205 5.88599 10.1136 5.75399C10.0068 5.62198 9.86533 5.52141 9.68933 5.45226C9.51332 5.37683 9.2996 5.33912 9.04817 5.33912H8.50129V4.6791H12.6217V5.33912H11.0282C11.1539 5.45855 11.2545 5.5937 11.3299 5.74456C11.4117 5.88913 11.4651 6.05571 11.4902 6.24429H12.6217V6.90431H11.5091C11.4525 7.36318 11.2734 7.72462 10.9717 7.98863C10.6762 8.24635 10.2896 8.41607 9.8119 8.49778L11.6411 11.4113H10.2362Z" fill="#FFDEAE"/>
<path d="M29.84 31.0525C29.7674 31.1821 29.6316 31.3377 29.4391 31.516C27.9265 32.9183 23.0036 35.6831 19.573 37.1638C16.849 38.339 14.4464 39.7129 12.875 39.8709C12.2114 39.9359 11.6974 39.7876 11.3668 39.3193C10.2503 37.7366 6.08148 26.2598 4.8792 22.5241C3.67692 18.786 3.33279 17.5994 4.44895 16.2784C4.44895 16.2784 16.6089 9.6386 19.0566 8.0998C20.2839 7.32798 20.8861 6.59107 21.1782 6.04634C21.4544 5.54101 21.4636 5.20263 21.4636 5.15873C21.4636 5.15631 21.4636 5.15424 21.4636 5.15424C21.4636 5.15424 21.4636 5.15666 21.4659 5.15873C21.5997 5.52684 30.481 29.9192 29.84 31.0525Z" fill="#F2B8C6"/>
<path opacity="0.7" d="M4.79773 12.2956C2.20507 13.8506 0.613061 15.086 0.00854492 15.5771C0.0652817 14.8285 0.395575 14.4324 0.939302 14.0798C1.43541 13.7577 2.70557 12.9858 4.52857 11.943C4.61199 12.0637 4.7025 12.1819 4.79773 12.2956Z" fill="white"/>
<path opacity="0.7" d="M29.8372 31.0532C29.7645 31.1829 29.6288 31.3384 29.4363 31.5167C28.5599 27.0206 25.2334 17.0412 23.0233 10.8929C22.1787 8.54776 21.4972 6.76079 21.1757 6.04704C21.1031 5.88251 21.049 5.77605 21.0149 5.73181C20.6414 5.2289 19.43 5.40967 16.8596 6.42241C16.837 6.18599 16.8029 5.9544 16.76 5.72697C20.1453 4.5822 21.4611 5.15459 21.4611 5.15459C21.4611 5.15459 21.4611 5.15701 21.4634 5.15908C21.5968 5.52754 30.4781 29.9199 29.8372 31.0532Z" fill="white"/>
<g opacity="0.3">
<path d="M29.1933 30.7888C28.4618 31.7296 23.4305 34.7426 19.307 36.5247C18.4941 36.8769 17.7197 37.2385 16.9723 37.5907C15.2219 38.4133 13.5667 39.19 12.5884 39.19C12.1696 39.19 12.0132 39.051 11.916 38.9117C10.8653 37.4237 6.74618 26.1074 5.52364 22.3064C4.33014 18.5959 4.14676 17.7639 4.88502 16.83C5.2224 16.6447 6.18489 16.1187 7.46856 15.4115C9.22571 16.6005 12.0676 16.7557 14.7329 17.3768C19.7146 18.5354 14.9595 20.0421 15.5819 23.6343C16.1412 26.8602 19.2117 29.8545 29.0211 29.7989C29.1298 30.2534 29.1889 30.5918 29.1933 30.7888Z" fill="#FF577F"/>
<path d="M20.6012 22.6135C18.1645 22.3798 17.0912 25.2013 22.0355 26.5534C26.9793 27.9052 25.4319 23.077 20.6012 22.6135Z" fill="#F69BB1"/>
</g>
<path d="M35.8744 25.0611C35.8744 19.6873 32.6544 15.1948 28.3459 14.0642V13.7872H26.2226C20.8918 13.7872 16.5708 18.8347 16.5708 25.0611C16.5708 31.2875 20.8922 36.335 26.2226 36.335H28.3459V36.0579C32.6548 34.9273 35.8744 30.4348 35.8744 25.0611Z" fill="#DC9530"/>
<path d="M30.476 34.7124V34.6161C30.4215 34.6491 30.3663 34.6806 30.311 34.7124H30.476Z" fill="white" stroke="#262425" stroke-width="0.327679" stroke-miterlimit="10"/>
<path opacity="0.3" d="M17.7805 29.4024C18.6536 31.7147 20.2008 33.6001 22.1326 34.7191H30.3134C30.3727 34.6849 30.432 34.651 30.4905 34.6155V29.4028H17.7805V29.4024Z" fill="#DC9530"/>
<path opacity="0.3" d="M28.4537 25.5141H17.0042C17.0445 26.6463 17.2325 27.7339 17.5496 28.7497H28.4537V25.5141Z" fill="#DC9530"/>
<path opacity="0.3" d="M27.9405 23.0903H17.1526C17.059 23.6812 17.0065 24.2886 16.9993 24.9088H27.9405V23.0903Z" fill="#DC9530"/>
<path opacity="0.3" d="M27.9403 21.4448H17.5296C17.4388 21.7425 17.3577 22.0452 17.2896 22.354H27.9403V21.4448Z" fill="#DC9530"/>
<path d="M28.3483 36.3344C33.6788 36.3344 38.0001 31.2869 38.0001 25.0605C38.0001 18.8341 33.6788 13.7866 28.3483 13.7866C23.0178 13.7866 18.6965 18.8341 18.6965 25.0605C18.6965 31.2869 23.0178 36.3344 28.3483 36.3344Z" fill="#F8B02B"/>
<path opacity="0.3" d="M37.535 25.0602C37.535 30.9786 33.4133 35.7928 28.3464 35.7928C24.8839 35.7928 21.8617 33.5453 20.2959 30.2316C21.6099 31.0793 23.1189 31.5612 24.7234 31.5612C29.7903 31.5612 33.912 26.747 33.912 20.8286C33.912 18.9544 33.4997 17.1904 32.7739 15.6573C35.6105 17.4861 37.535 21.0161 37.535 25.0602Z" fill="#DC9530"/>
<path d="M35.4138 25.0612C35.4138 29.6211 32.2495 33.3175 28.3453 33.3175C28.0625 33.3175 27.7833 33.2977 27.5098 33.2597C24.001 32.7782 21.2769 29.2912 21.2769 25.0612C21.2769 20.8313 24.001 17.3446 27.5098 16.8627C27.7829 16.8248 28.0625 16.8049 28.3453 16.8049C32.2495 16.8049 35.4138 20.501 35.4138 25.0612Z" fill="#DC9530"/>
<path d="M33.7411 25.0593C33.7411 29.2892 31.0198 32.7742 27.5098 33.2577C26.8425 33.1657 26.2034 32.9675 25.6071 32.6735C24.2313 31.9971 23.0775 30.8265 22.3069 29.3528C21.6537 28.1029 21.2769 26.6325 21.2769 25.0597C21.2769 20.8297 24.001 17.3431 27.5098 16.8612C31.0198 17.3443 33.7411 20.8293 33.7411 25.0593Z" fill="#F59111"/>
<path d="M27.5387 30.7675L24.5977 25.6529V24.6459H25.333C25.7805 24.6459 26.1694 24.5927 26.4998 24.4861C26.8301 24.3795 27.0965 24.2144 27.2989 23.9906C27.512 23.7562 27.6506 23.4685 27.7145 23.1275H24.5977V22.0087H27.6985C27.6346 21.6784 27.512 21.4013 27.3309 21.1776C27.1497 20.9538 26.91 20.7833 26.6116 20.6661C26.3133 20.5382 25.951 20.4743 25.5248 20.4743H24.5977V19.3555H31.5825V20.4743H28.8813C29.0944 20.6767 29.2649 20.9058 29.3927 21.1616C29.5313 21.4066 29.6218 21.689 29.6645 22.0087H31.5825V23.1275H29.6964C29.6005 23.9054 29.2968 24.5181 28.7854 24.9656C28.2846 25.4025 27.6292 25.6902 26.8194 25.8287L29.9202 30.7675H27.5387Z" fill="#FFDEAE"/>
</svg>
