<svg width="91" height="78" viewBox="0 0 91 78" fill="none" xmlns="http://www.w3.org/2000/svg">
<path d="M87.75 0H58.5C55.9773 0 53.4892 0.587358 51.2328 1.71556C48.9764 2.84376 47.0136 4.48181 45.5 6.5C43.9864 4.48181 42.0236 2.84376 39.7672 1.71556C37.5108 0.587358 35.0227 0 32.5 0H3.25C2.38805 0 1.5614 0.34241 0.951903 0.951904C0.34241 1.5614 0 2.38805 0 3.25V61.75C0 62.612 0.34241 63.4386 0.951903 64.0481C1.5614 64.6576 2.38805 65 3.25 65H32.5C35.0859 65 37.5658 66.0272 39.3943 67.8557C41.2228 69.6842 42.25 72.1641 42.25 74.75C42.25 75.612 42.5924 76.4386 43.2019 77.0481C43.8114 77.6576 44.638 78 45.5 78C46.362 78 47.1886 77.6576 47.7981 77.0481C48.4076 76.4386 48.75 75.612 48.75 74.75C48.75 72.1641 49.7772 69.6842 51.6057 67.8557C53.4342 66.0272 55.9141 65 58.5 65H87.75C88.612 65 89.4386 64.6576 90.0481 64.0481C90.6576 63.4386 91 62.612 91 61.75V3.25C91 2.38805 90.6576 1.5614 90.0481 0.951904C89.4386 0.34241 88.612 0 87.75 0ZM32.5 58.5H6.5V6.5H32.5C35.0859 6.5 37.5658 7.52723 39.3943 9.35571C41.2228 11.1842 42.25 13.6641 42.25 16.25V61.75C39.4398 59.6354 36.0169 58.4944 32.5 58.5ZM84.5 58.5H58.5C54.9831 58.4944 51.5602 59.6354 48.75 61.75V16.25C48.75 13.6641 49.7772 11.1842 51.6057 9.35571C53.4342 7.52723 55.9141 6.5 58.5 6.5H84.5V58.5ZM58.5 16.25H74.75C75.612 16.25 76.4386 16.5924 77.0481 17.2019C77.6576 17.8114 78 18.638 78 19.5C78 20.362 77.6576 21.1886 77.0481 21.7981C76.4386 22.4076 75.612 22.75 74.75 22.75H58.5C57.638 22.75 56.8114 22.4076 56.2019 21.7981C55.5924 21.1886 55.25 20.362 55.25 19.5C55.25 18.638 55.5924 17.8114 56.2019 17.2019C56.8114 16.5924 57.638 16.25 58.5 16.25ZM78 32.5C78 33.362 77.6576 34.1886 77.0481 34.7981C76.4386 35.4076 75.612 35.75 74.75 35.75H58.5C57.638 35.75 56.8114 35.4076 56.2019 34.7981C55.5924 34.1886 55.25 33.362 55.25 32.5C55.25 31.638 55.5924 30.8114 56.2019 30.2019C56.8114 29.5924 57.638 29.25 58.5 29.25H74.75C75.612 29.25 76.4386 29.5924 77.0481 30.2019C77.6576 30.8114 78 31.638 78 32.5ZM78 45.5C78 46.362 77.6576 47.1886 77.0481 47.7981C76.4386 48.4076 75.612 48.75 74.75 48.75H58.5C57.638 48.75 56.8114 48.4076 56.2019 47.7981C55.5924 47.1886 55.25 46.362 55.25 45.5C55.25 44.638 55.5924 43.8114 56.2019 43.2019C56.8114 42.5924 57.638 42.25 58.5 42.25H74.75C75.612 42.25 76.4386 42.5924 77.0481 43.2019C77.6576 43.8114 78 44.638 78 45.5Z" fill="#D1D5DB"/>
</svg>
