<svg width="88" height="62" viewBox="0 0 88 62" fill="none" xmlns="http://www.w3.org/2000/svg">
<path d="M0 3.25C0 2.38805 0.34241 1.5614 0.951904 0.951903C1.5614 0.34241 2.38805 0 3.25 0H74.75C75.612 0 76.4386 0.34241 77.0481 0.951903C77.6576 1.5614 78 2.38805 78 3.25C78 4.11195 77.6576 4.9386 77.0481 5.5481C76.4386 6.15759 75.612 6.5 74.75 6.5H3.25C2.38805 6.5 1.5614 6.15759 0.951904 5.5481C0.34241 4.9386 0 4.11195 0 3.25ZM42.25 26H3.25C2.38805 26 1.5614 26.3424 0.951904 26.9519C0.34241 27.5614 0 28.388 0 29.25C0 30.1119 0.34241 30.9386 0.951904 31.5481C1.5614 32.1576 2.38805 32.5 3.25 32.5H42.25C43.112 32.5 43.9386 32.1576 44.5481 31.5481C45.1576 30.9386 45.5 30.1119 45.5 29.25C45.5 28.388 45.1576 27.5614 44.5481 26.9519C43.9386 26.3424 43.112 26 42.25 26ZM42.25 52H3.25C2.38805 52 1.5614 52.3424 0.951904 52.9519C0.34241 53.5614 0 54.388 0 55.25C0 56.1119 0.34241 56.9386 0.951904 57.5481C1.5614 58.1576 2.38805 58.5 3.25 58.5H42.25C43.112 58.5 43.9386 58.1576 44.5481 57.5481C45.1576 56.9386 45.5 56.1119 45.5 55.25C45.5 54.388 45.1576 53.5614 44.5481 52.9519C43.9386 52.3424 43.112 52 42.25 52ZM87.75 42.25C87.7497 42.8009 87.6094 43.3428 87.3422 43.8246C87.075 44.3064 86.6897 44.7124 86.2225 45.0044L60.2225 61.2544C59.7307 61.5618 59.1655 61.7319 58.5857 61.7472C58.0059 61.7625 57.4326 61.6224 56.9252 61.3414C56.4178 61.0603 55.9949 60.6486 55.7004 60.149C55.4058 59.6494 55.2503 59.08 55.25 58.5V26C55.2503 25.42 55.4058 24.8506 55.7004 24.351C55.9949 23.8514 56.4178 23.4397 56.9252 23.1586C57.4326 22.8776 58.0059 22.7374 58.5857 22.7527C59.1655 22.768 59.7307 22.9382 60.2225 23.2456L86.2225 39.4956C86.6897 39.7876 87.075 40.1936 87.3422 40.6754C87.6094 41.1572 87.7497 41.6991 87.75 42.25ZM78.3697 42.25L61.75 31.8622V52.6378L78.3697 42.25Z" fill="#6B7280"/>
</svg>
